<svg width="100%" height="100%" overflow="visible" style="display: block;" viewBox="0 0 54.9679 32.4099" fill="none" xmlns="http://www.w3.org/2000/svg">
<g id="g8032">
<path id="path174" d="M21.6214 5.55556C21.9542 5.21578 22.0932 5.0336 22.5493 4.84024C23.7931 4.9263 27.2659 5.49744 28.0693 7.16502C26.5397 5.92551 24.1416 5.38902 22.6356 5.39126C22.314 5.39238 22.0192 5.44938 21.6214 5.55556Z" fill="var(--fill-0, #A98785)"/>
<path id="path176" d="M37.6767 23.442C37.2319 23.5951 36.8217 23.8589 36.3376 23.898C36.6346 23.5582 37.2666 23.366 37.6767 23.442Z" fill="var(--fill-0, #A98785)"/>
<path id="path178" d="M32.3743 17.0023C32.7856 15.1056 34.8822 14.492 36.5777 14.8418C34.955 15.0598 33.4714 15.4018 32.3743 17.0023Z" fill="var(--fill-0, #A98785)"/>
<path id="path180" d="M35.8683 13.675C35.9143 13.1061 36.014 12.5808 36.497 12.3136C36.386 12.7305 36.3166 13.3698 36.2404 13.9376C35.9938 14.0449 35.8448 13.9387 35.8683 13.675Z" fill="var(--fill-0, #A98785)"/>
<path id="path182" d="M20.1477 13.3321C19.4552 12.8615 19.1257 12.2904 18.9509 11.5985C18.7918 10.957 18.7257 10.3199 18.9476 9.63924C19.0619 10.995 19.3622 12.277 20.1477 13.3321Z" fill="var(--fill-0, #A98785)"/>
<path id="path184" d="M10.8205 6.48492L11.0065 6.29826C12.1618 6.97334 13.2432 8.20391 13.9178 9.33613C14.2797 8.79964 14.6417 8.70687 15.0361 8.8164C14.663 9.08129 14.4389 9.64684 13.957 9.64908C13.0953 8.52022 12.0139 7.388 10.8205 6.48492Z" fill="var(--fill-0, #A98785)"/>
<path id="path186" d="M18.7951 8.61958C18.6427 7.68519 19.157 6.81787 19.4999 6.16515C19.9179 5.38947 20.4289 4.87981 21.0968 4.80492C19.6131 5.74601 19.8372 7.52201 18.7951 8.61958Z" fill="var(--fill-0, #A98785)"/>
<path id="path188" d="M54.5248 3.75318L54.2323 3.74536C54.2849 5.55377 52.0628 5.11899 50.606 6.20985C49.4294 7.11294 48.0914 8.4564 46.7165 9.75067C46.4554 9.99656 46.3332 10.3665 46.4083 10.7208C49.286 8.17809 50.4996 5.57389 53.9152 5.48336C54.6604 5.18158 54.7141 4.39473 54.5248 3.75318ZM53.4423 3.17087C53.2361 3.22564 52.8147 3.26252 52.5951 3.22116C52.7352 4.11308 52.3116 4.62833 51.0386 5.6443C52.9178 4.76915 53.9039 5.08546 53.9039 3.70065C53.7515 3.49053 53.6552 3.36311 53.4423 3.17087ZM52.1446 3.13622C52.0157 3.04904 51.6841 2.93727 51.3333 2.93727C50.8066 3.34858 50.9893 4.46179 50.3169 4.99046C50.1724 5.10334 50.0469 5.08993 49.927 4.9804L49.8283 4.87534C50.3382 4.58027 50.6609 3.75877 50.3606 3.39888C49.379 2.44326 48.0713 2.82103 46.694 4.08178C45.7606 4.98822 44.7868 5.49565 43.8825 7.04699C43.7558 6.58204 43.1877 6.31044 42.707 6.58204C40.7829 7.66507 38.4902 9.78532 37.0939 11.1578C37.0547 11.1981 37.0177 11.2383 36.9729 11.2774C36.9695 11.2785 36.9673 11.283 36.965 11.2853C36.6345 11.5792 35.7963 12.0263 35.6069 11.7647C35.2517 11.1891 33.8307 10.3386 33.3007 10.4079C33.1954 10.4638 33.2402 10.9589 33.5215 11.3199C34.0862 12.0453 35.1609 12.8455 35.1609 12.8455C34.8247 13.771 33.6033 12.4096 31.2153 15.6453V16.0231C31.677 15.9829 32.2014 15.9918 32.263 16.3752C31.1436 16.2869 30.7289 16.5607 30.4387 18.1009C29.9815 17.8259 30.2874 17.048 30.5104 16.6669C29.5467 16.1885 29.0503 17.7086 28.9158 19.8378C28.6939 18.3557 28.6088 16.4255 29.8806 15.3536V15.3111C28.8094 15.481 28.1 15.8029 27.5789 16.5473C27.8109 18.4485 28.1796 20.2256 28.6581 22.1033C30.1541 21.4405 30.8869 22.2341 32.9421 21.5288C34.53 20.9845 35.98 20.6526 37.4828 19.8948C39.1446 19.0576 39.975 17.9377 40.3504 16.3841C40.7818 14.6092 41.6256 13.8202 42.6543 12.9025C44.9078 10.8929 50.9725 5.30117 50.9725 5.30117C51.6056 4.6585 52.4001 4.01248 52.1446 3.13622ZM34.3328 9.94291C34.7911 10.6236 36.221 11.7245 36.7432 10.7957C36.9337 10.4548 36.9673 10.2715 37.0155 9.93509C36.3823 9.60761 35.2012 9.68026 34.3328 9.94291ZM36.2591 8.54357C35.1564 8.5514 34.6342 8.8487 34.4179 9.54502C35.3066 9.3416 36.2736 9.1963 36.9785 9.51149C36.8485 9.10018 36.6378 8.80176 36.2591 8.54357ZM31.7285 5.77284C29.7103 4.61156 25.7569 3.39999 23.5325 3.84819C22.9027 3.9756 22.1519 4.27626 21.79 4.51544L21.6039 4.32544C22.1273 3.85601 22.6528 3.55871 23.1773 3.38994C21.4605 3.41564 19.5219 3.4447 17.6852 3.49053C17.748 3.96778 17.6707 4.37461 17.4701 4.69651C18.0718 4.65739 18.4842 4.32209 18.6669 3.61906H18.7184C18.7789 4.67639 18.1166 5.24753 17.0723 5.1257C16.6319 5.45877 15.9875 5.64095 15.2042 5.65325C15.2524 6.31044 15.555 6.84022 16.0873 7.39683C17.2471 7.35883 18.259 6.33727 19.2529 5.28106L19.2765 5.30676C18.1099 7.00229 17.3546 8.68217 16.3775 9.26448L15.7421 9.26783C14.9263 10.1363 14.5946 11.8329 13.1412 11.9156C12.9922 11.9067 12.8801 11.7636 12.8801 11.6139C14.7056 11.6831 14.886 9.45672 15.927 8.55028C15.5113 8.57487 15.1437 8.49328 14.7717 8.17697C15.1605 8.09762 15.5281 7.95232 15.741 7.71984C15.016 6.5038 13.7575 5.54148 12.7725 5.31906L12.7445 5.38053C13.1939 6.21767 13.5838 6.96093 13.7665 7.83832C12.991 6.64351 12.0531 5.59177 11.1869 4.87534C11.1499 5.42076 11.0132 6.01649 10.6681 6.47698C10.5089 6.5541 10.3184 6.59657 10.1212 6.59657C9.09699 6.59657 8.80787 5.99078 8.63082 5.21623H8.58151C8.57815 5.27882 8.57591 5.34029 8.57591 5.40176C8.57591 8.2798 12.4308 13.7755 15.4283 13.7755C17.0521 13.7755 17.5149 12.7137 17.5933 10.77C17.6572 9.16724 17.9508 8.47316 18.2321 8.15909C17.9228 9.17842 17.795 10.001 17.8309 11.1981C17.8612 12.1738 17.6594 13.0791 17.1025 13.648C17.3737 13.876 17.9317 14.3119 18.5481 14.6148C20.7669 15.7068 23.3196 15.6677 25.6964 16.7183C26.2959 16.9832 26.7744 17.1676 27.2618 17.2224L27.1666 16.4702C27.6764 15.2206 29.717 14.759 31.1906 14.7937C31.5638 14.3656 31.9403 13.4245 31.9145 13.144C31.5839 11.0841 32.9578 9.30472 33.7882 8.09762C33.8543 7.51978 33.0194 6.59433 31.7285 5.77284ZM8.39101 4.07507C8.12095 2.97751 7.54944 1.93918 5.28248 1.93918C4.23024 1.93918 3.09508 2.22754 2.47988 2.50696C4.15741 3.13622 6.77512 3.84148 8.39101 4.07507ZM4.70538 0.433662C2.1112 0.433662 0.434791 1.1568 0.434791 2.23425C0.434791 4.15667 5.03819 5.20058 8.19491 5.81307C8.1893 5.74713 8.18707 5.68454 8.18707 5.61971C8.18707 5.24752 8.233 4.8731 8.30808 4.49979C7.50462 4.36456 4.1025 3.75542 2.14818 2.81321C1.81536 2.65115 1.95768 2.19625 1.94871 2.19848C1.94871 2.19848 3.43574 1.52676 5.25559 1.52676C10.2344 1.52676 7.94389 6.19756 10.1212 6.19756C10.5941 6.19756 10.8037 5.3157 10.8037 4.75798C10.8037 1.82518 7.74443 0.433662 4.70538 0.433662ZM27.6036 20.0937L27.747 20.0736L27.3268 17.817C27.1049 17.7276 26.7755 17.6505 26.5637 17.656C26.5289 18.6139 26.9805 19.5773 27.6036 20.0937ZM34.186 21.5389V21.5087C32.8872 21.6685 31.6725 22.8555 30.3457 22.1894C29.9333 22.1804 29.1399 22.4252 28.7802 22.585C28.8654 23.0232 29.1332 23.5183 29.7126 23.4311C31.6523 23.1416 32.7482 22.1156 34.186 21.5389ZM28.3802 26.3572C28.9024 26.9585 29.3719 27.3296 30.2123 27.7253C29.9849 26.4802 31.4136 25.9794 31.519 24.826C32.4547 24.4951 32.6676 23.3328 33.6526 23.9039C35.1396 20.8459 38.4207 22.7247 40.4266 20.9096L40.4198 21.1197C38.6728 22.7247 35.4141 22.0318 33.9036 24.0257C34.4213 24.2873 35.0421 24.2381 35.8164 23.9743C34.8819 25.4329 32.6115 23.6792 31.9448 25.3424C32.9119 25.529 33.5842 25.4139 34.4773 25.1468L34.6275 25.3345C33.5864 26.2443 32.2059 25.4541 31.166 26.3617C30.2717 27.2312 30.4981 28.7032 30.9855 29.6812C31.4719 30.5485 32.5902 30.3954 33.2951 30.1294C33.6884 28.9871 34.1938 28.1567 35.19 27.409C34.6096 28.2349 34.2823 28.8351 34.0403 29.9763L35.0847 30.5798C35.6069 30.5396 36.0518 30.3507 36.6132 30.4267C36.1649 29.7091 36.9045 28.1992 35.6371 28.1623C35.6416 28.0058 35.729 27.8694 35.8982 27.7856C36.7566 28.16 36.0809 26.8781 36.6053 26.6143C36.8227 24.5376 39.5424 24.9847 39.7262 22.9852C39.204 23.1372 38.6829 23.7407 38.1988 23.4423C39.3519 22.8343 40.5039 21.8518 41.2468 20.7174C41.5651 20.2021 42.0088 19.4611 42.3439 18.7212C42.2285 19.4823 41.741 20.4693 41.4317 20.9063C40.6507 21.7367 39.613 22.9852 40.1733 24.1531L40.1016 24.6058C41.0709 24.8685 40.4691 25.9168 40.8871 26.9429C41.0474 27.3296 41.4519 27.7264 41.6334 27.3866C42.744 25.5111 43.0364 24.9232 43.7906 23.1785C42.41 21.863 44.5324 20.8034 44.5369 19.4354C44.5492 16.6468 45.997 15.1591 45.699 12.3683C45.7718 11.6161 46.1024 11.4596 45.8839 10.6605C45.504 11.1657 45.5141 12.0676 45.0669 12.5605C43.2449 14.1376 43.4129 17.1106 41.4519 19.1638C40.8233 19.8244 40.0579 20.0445 39.3967 20.4581L39.6455 20.7196C38.9485 21.0203 38.5552 21.0493 37.7483 21.4405C38.3042 20.4592 39.4225 20.1563 40.2786 19.5483C43.0756 17.6236 42.3372 14.9468 44.4607 12.6388C44.9549 12.1 45.0569 11.8206 44.9941 11.4931H44.9594C43.3244 13.0322 41.0474 14.2806 40.7907 16.6434C39.6096 21.1723 35.1755 20.7587 31.6254 23.4143C30.2628 24.4303 29.5546 24.8439 28.4788 24.3689C28.2143 25.0261 28.453 25.6385 28.3802 26.3572ZM31.8159 30.6681C33.3119 30.7788 34.4583 30.933 35.9072 31.408V31.2169C35.1979 31.1454 34.6779 30.6927 34.1165 30.316L31.8159 30.6391V30.6681ZM33.7187 31.2571C34.8034 32.0261 36.5605 32.4888 37.8806 31.7802C37.8783 31.2996 37.392 31.3477 37.132 31.1063H37.0849L37.1735 31.4047C36.7633 31.3309 36.2053 31.4829 35.8321 31.6707L33.7187 31.2337V31.2571ZM40.4064 30.9855V30.9621C39.5043 31.3432 38.8387 30.8805 37.7887 31.0224V31.0448C38.5227 31.7992 39.6713 31.7333 40.4064 30.9855ZM39.8517 29.6622C39.6959 30.0009 39.501 30.3507 39.1581 30.5396L38.5126 30.42C38.4745 30.7184 38.591 30.8548 39.0348 30.8715C39.8226 30.904 40.3302 30.7464 40.4501 30.3026C40.4109 30.1137 40.0388 29.7382 39.8517 29.6622ZM38.1305 26.2332L37.9422 25.5927C37.662 25.5927 37.3326 25.6385 37.3102 25.9694C37.2923 26.2644 37.4951 26.4701 37.7573 26.612L38.2033 26.4198C38.1708 27.78 39.9245 26.9228 40.2573 26.3941C40.366 25.9828 40.3459 25.633 40.291 25.2462C39.7284 25.2339 38.9989 25.3345 38.4117 25.5435C38.0946 25.7023 38.6504 26.156 38.1305 26.2332ZM41.0787 28.8664L41.0037 27.8784H40.9667C40.3291 28.4205 39.0975 28.9066 38.4241 28.2204C37.7259 28.1746 37.1645 27.818 36.9785 27.1418H36.8653C36.6076 27.5576 36.9785 27.9723 37.3147 28.16C36.3846 28.2875 36.5471 30.99 38.0677 30.6871C37.94 30.3976 38.2145 30.1495 38.4005 30.0422C39.6668 30.7955 39.3284 28.0796 40.3705 29.5873C40.4848 29.6343 40.6496 29.6734 40.7818 29.6767C40.951 29.4733 41.0956 29.138 41.0787 28.8664ZM54.9495 4.73227C54.8789 5.0944 54.6043 5.59065 53.932 5.82872C51.4073 5.78513 49.8306 7.86179 48.0869 9.60761C46.4554 11.2405 46.1808 11.5758 45.9623 15.576C45.3292 16.7094 45.1891 18.0316 45.0064 19.3527C44.8249 20.5967 43.302 21.7255 44.333 23.1517C43.5519 24.6483 42.7305 26.5338 42.3461 27.8236C40.672 28.9212 41.4945 31.8842 39.1132 32.0406L38.4016 31.854C36.6177 33.0264 34.3429 32.1278 32.7785 31.1498C32.0311 30.6614 30.2381 31.503 30.2247 30.0758C31.1245 28.217 28.5785 27.7722 27.83 26.365C27.9174 26.0309 27.9387 25.6855 27.9387 25.4184C27.9387 24.5175 27.4254 23.1003 27.4254 22.3414C27.4254 21.92 27.4983 21.5914 27.6406 21.3355C27.6406 20.3966 26.1905 19.0487 26.1905 19.0487C26.2768 18.0875 26.4471 17.4135 25.4509 17.0022C23.0506 16.0108 20.5248 15.9918 18.3038 14.901C17.6505 14.5791 17.0622 14.1052 16.8089 13.8895C16.475 14.1163 16.0469 14.2493 15.5079 14.2493C12.3893 14.2493 8.71822 9.22983 8.23973 6.23109C4.36808 5.48224 0 4.50427 0 2.20743C0 0.741027 1.86803 0 4.6796 0C7.31636 0 9.74581 0.889676 10.9023 2.94957C11.0838 3.26922 11.3023 3.54864 11.5432 3.78112C12.5451 4.74233 13.994 4.96587 15.2569 4.99828C16.7809 5.03964 17.3827 4.40703 17.6404 3.49053C15.5146 3.54194 13.5312 3.60788 12.201 3.69618C12.2021 3.03227 12.6773 2.79309 14.0478 2.77409C14.6955 2.7685 21.8807 2.83445 26.4068 2.84339C26.4068 2.84339 27.2977 2.84115 27.9913 2.84339C28.6816 2.84115 29.5736 2.84339 29.5736 2.84339C34.1008 2.83445 41.2849 2.7685 41.9349 2.77409C43.3042 2.79309 43.7827 3.03227 43.7827 3.69618C39.8226 3.43688 30.0824 3.35529 27.9913 3.34188C27.5689 3.34411 26.8326 3.34746 25.8981 3.35864C28.0922 3.71742 30.9811 4.70769 33.3422 5.94831C35.3391 7.00229 37.0244 8.12891 38.3826 8.15685C39.6029 8.15685 40.8557 6.78099 43.822 5.40959C45.9074 4.44726 47.4213 2.4332 49.0932 2.4332C49.8418 2.4332 50.4447 2.71821 50.7002 3.17199C50.7596 2.98757 50.8817 2.73274 51.1305 2.56955C51.8667 2.56955 52.3205 2.89592 52.8808 2.89592C53.1038 2.89592 53.3044 2.89033 53.5263 2.81097C53.5263 2.81097 53.7762 3.0904 54.0821 3.42794C54.3309 3.43911 54.555 3.4447 54.7657 3.44694C54.9226 3.82807 55.0077 4.42603 54.9495 4.73227Z" fill="var(--fill-0, #A98785)"/>
</g>
</svg>
