<svg preserveAspectRatio="none" width="100%" height="100%" overflow="visible" style="display: block;" viewBox="0 0 55 15.9193" fill="none" xmlns="http://www.w3.org/2000/svg">
<g id="g8015">
<path id="path190" d="M0 0H54.9136V0.414661H0V0Z" fill="var(--fill-0, #D43216)"/>
<path id="path192" d="M3.92253 3.81952C4.60385 3.81952 4.9983 4.08777 4.9983 4.56949V4.59296C4.9983 5.0378 4.65203 5.3284 3.90235 5.3284H2.19121V3.81952H3.92253ZM3.60092 6.92109C4.28112 6.92109 4.66212 7.15246 4.66212 7.63418V7.65877C4.66212 8.10137 4.31586 8.35955 3.64574 8.35955H2.19121V6.92109H3.60092ZM0.00829163 10.1814H4.15449C5.16975 10.1814 5.88469 9.92654 6.35982 9.44706C6.68367 9.11846 6.87865 8.6848 6.87865 8.12372V8.10137C6.87865 7.15245 6.34861 6.59138 5.63255 6.27731C6.61419 5.95094 7.23725 5.38651 7.23725 4.27777V4.25318C7.23725 2.84825 6.10769 1.99546 4.17914 1.99546H0.00829163V10.1814Z" fill="var(--fill-0, #D43216)"/>
<path id="path194" d="M8.244 10.1815H14.7446V8.25237H10.4594V7.01397H14.3411V5.22456H10.4594V3.92581H14.8017V1.99669H8.244V10.1815Z" fill="var(--fill-0, #D43216)"/>
<path id="path196" d="M15.9217 10.1815H18.1629V3.98505H22.0772V1.99669H15.9217V10.1815Z" fill="var(--fill-0, #D43216)"/>
<path id="path198" d="M23.0119 10.1815H29.481V8.19648H25.253V6.80496H29.0765V4.91943H25.253V1.99669H23.0119V10.1815Z" fill="var(--fill-0, #D43216)"/>
<path id="path200" d="M36.6178 6.06729V6.08965C36.6178 7.27439 35.774 8.30266 34.5391 8.30266C33.3154 8.30266 32.494 7.29451 32.494 6.11424V6.08965C32.494 4.90826 33.3367 3.87887 34.5615 3.87887C35.7975 3.87887 36.6178 4.88255 36.6178 6.06729ZM30.1956 6.06729V6.08965C30.1956 8.44126 32.067 10.348 34.5615 10.348C37.0559 10.348 38.9038 8.46473 38.9038 6.11424V6.08965C38.9038 3.73916 37.0335 1.83127 34.5391 1.83127C32.0446 1.83127 30.1956 3.71457 30.1956 6.06729Z" fill="var(--fill-0, #D43216)"/>
<path id="path202" d="M43.7672 6.25305C44.5281 6.25305 44.9673 6.62636 44.9673 7.22208V7.24667C44.9673 7.89157 44.5056 8.21794 43.7537 8.21794H42.2869V6.25305H43.7672ZM40.0468 10.1817H43.8703C45.104 10.1817 45.9624 9.85646 46.5048 9.29539C46.9777 8.82819 47.2208 8.19671 47.2208 7.3875V7.36515C47.2208 6.11446 46.5631 5.2829 45.5568 4.85036L47.4842 1.99468H44.899L43.2707 4.47482H43.2461H42.2869V1.99468H40.0468V10.1817Z" fill="var(--fill-0, #D43216)"/>
<path id="path204" d="M50.3027 8.19614H47.8755V10.1812H54.97V8.19614H52.5439V1.99747H50.3027V8.19614Z" fill="var(--fill-0, #D43216)"/>
<path id="path206" d="M25.6791 11.3693H24.8129L23.0098 15.9193H24.0912L25.2589 12.7373L26.4254 15.9193H27.4833L25.6791 11.3693Z" fill="var(--fill-0, #D43216)"/>
<path id="path208" d="M28.4082 11.4027H29.3876V15.9192H28.4082V11.4027Z" fill="var(--fill-0, #D43216)"/>
<path id="path210" d="M30.6935 11.4024V15.919H31.6752V12.3055H33.9007V11.4024H30.6935Z" fill="var(--fill-0, #D43216)"/>
<path id="path212" d="M34.8293 11.4024V15.919H35.8109V12.3055H38.0331V11.4024H34.8293Z" fill="var(--fill-0, #D43216)"/>
<path id="path214" d="M38.9655 11.4024V15.919H42.3296V15.0349H39.9393V14.1207H42.0438V13.2354H39.9393V12.2877H42.3643V11.4024H38.9655Z" fill="var(--fill-0, #D43216)"/>
<path id="path216" d="M49.5153 13.6625C49.5153 14.4617 48.9718 15.025 48.1694 15.025H47.4085V12.2989H48.1694C48.9718 12.2989 49.5153 12.8466 49.5153 13.6502V13.6625ZM48.1694 11.4026H46.4303V15.9191H48.1694C49.5702 15.9191 50.5395 14.9445 50.5395 13.6748V13.6625C50.5395 12.3895 49.5702 11.4026 48.1694 11.4026Z" fill="var(--fill-0, #D43216)"/>
<path id="path218" d="M51.6024 11.4024V15.919H54.9675V15.0349H52.5784V14.1207H54.6806V13.2354H52.5784V12.2877H55V11.4024H51.6024Z" fill="var(--fill-0, #D43216)"/>
</g>
</svg>
