<svg width="55" height="48" viewBox="0 0 55 48" fill="none" xmlns="http://www.w3.org/2000/svg">
<g clip-path="url(#clip0_8_110)">
<path d="M21.6218 26.8836C21.9546 27.2233 22.0936 27.4055 22.5497 27.5989C23.7935 27.5128 27.2663 26.9417 28.0697 25.2741C26.5401 26.5136 24.1421 27.0501 22.636 27.0479C22.3144 27.0467 22.0196 26.9897 21.6218 26.8836Z" fill="#A98785"/>
<path d="M37.6772 8.99716C37.2323 8.84404 36.8222 8.58027 36.3381 8.54115C36.635 8.88092 37.267 9.07316 37.6772 8.99716Z" fill="#A98785"/>
<path d="M32.3748 15.4368C32.786 17.3335 34.8826 17.9471 36.5781 17.5973C34.9555 17.3793 33.4718 17.0373 32.3748 15.4368Z" fill="#A98785"/>
<path d="M35.8688 18.7642C35.9147 19.3331 36.0144 19.8584 36.4974 20.1255C36.3865 19.7086 36.317 19.0693 36.2408 18.5015C35.9943 18.3942 35.8452 18.5004 35.8688 18.7642Z" fill="#A98785"/>
<path d="M20.1481 19.1071C19.4556 19.5776 19.1261 20.1488 18.9513 20.8406C18.7922 21.4822 18.7261 22.1193 18.948 22.7999C19.0623 21.4442 19.3626 20.1622 20.1481 19.1071Z" fill="#A98785"/>
<path d="M10.8209 25.9542L11.0069 26.1409C12.1623 25.4658 13.2436 24.2352 13.9182 23.103C14.2802 23.6395 14.6422 23.7323 15.0366 23.6227C14.6634 23.3578 14.4393 22.7923 13.9575 22.7901C13.0957 23.9189 12.0144 25.0511 10.8209 25.9542Z" fill="#A98785"/>
<path d="M18.7955 23.8196C18.6431 24.7539 19.1574 25.6213 19.5003 26.274C19.9183 27.0497 20.4293 27.5593 21.0972 27.6342C19.6135 26.6931 19.8376 24.9171 18.7955 23.8196Z" fill="#A98785"/>
<path d="M54.5252 28.686L54.2327 28.6938C54.2854 26.8854 52.0632 27.3202 50.6065 26.2293C49.4298 25.3262 48.0919 23.9828 46.7169 22.6885C46.4558 22.4426 46.3336 22.0726 46.4087 21.7183C49.2864 24.2611 50.5 26.8653 53.9156 26.9558C54.6608 27.2576 54.7146 28.0444 54.5252 28.686ZM53.4427 29.2683C53.2365 29.2135 52.8152 29.1766 52.5955 29.218C52.7356 28.3261 52.312 27.8108 51.039 26.7948C52.9183 27.67 53.9044 27.3537 53.9044 28.7385C53.752 28.9486 53.6556 29.076 53.4427 29.2683ZM52.145 29.3029C52.0162 29.3901 51.6845 29.5019 51.3337 29.5019C50.8071 29.0906 50.9897 27.9774 50.3173 27.4487C50.1728 27.3358 50.0473 27.3492 49.9274 27.4587L49.8288 27.5638C50.3386 27.8589 50.6614 28.6804 50.3611 29.0403C49.3794 29.9959 48.0717 29.6181 46.6945 28.3574C45.761 27.4509 44.7872 26.9435 43.8829 25.3922C43.7563 25.8571 43.1881 26.1287 42.7074 25.8571C40.7833 24.7741 38.4906 22.6538 37.0943 21.2813C37.0551 21.2411 37.0181 21.2008 36.9733 21.1617C36.97 21.1606 36.9677 21.1561 36.9655 21.1539C36.6349 20.8599 35.7967 20.4129 35.6073 20.6744C35.2521 21.25 33.8312 22.1006 33.3011 22.0313C33.1958 21.9754 33.2406 21.4803 33.5219 21.1192C34.0867 20.3939 35.1613 19.5936 35.1613 19.5936C34.8251 18.6682 33.6037 20.0295 31.2157 16.7938V16.416C31.6774 16.4563 32.2018 16.4473 32.2635 16.064C31.144 16.1523 30.7294 15.8784 30.4391 14.3383C29.9819 14.6132 30.2878 15.3911 30.5108 15.7722C29.5471 16.2506 29.0507 14.7306 28.9162 12.6014C28.6944 14.0834 28.6092 16.0137 29.8811 17.0855V17.128C28.8098 16.9581 28.1005 16.6362 27.5794 15.8918C27.8113 13.9907 28.18 12.2135 28.6585 10.3358C30.1545 10.9986 30.8874 10.2051 32.9425 10.9103C34.5304 11.4546 35.9805 11.7866 37.4832 12.5444C39.145 13.3815 39.9754 14.5014 40.3508 16.055C40.7822 17.8299 41.626 18.619 42.6547 19.5366C44.9082 21.5462 50.9729 27.138 50.9729 27.138C51.606 27.7806 52.4005 28.4267 52.145 29.3029ZM34.3332 22.4962C34.7915 21.8156 36.2214 20.7146 36.7436 21.6434C36.9341 21.9843 36.9677 22.1676 37.0159 22.5041C36.3828 22.8315 35.2017 22.7589 34.3332 22.4962ZM36.2595 23.8956C35.1568 23.8877 34.6346 23.5904 34.4184 22.8941C35.307 23.0975 36.2741 23.2428 36.9789 22.9277C36.8489 23.339 36.6383 23.6374 36.2595 23.8956ZM31.7289 26.6663C29.7107 27.8276 25.7573 29.0392 23.5329 28.591C22.9031 28.4635 22.1523 28.1629 21.7904 27.9237L21.6044 28.1137C22.1277 28.5831 22.6532 28.8804 23.1777 29.0492C21.4609 29.0235 19.5223 28.9944 17.6856 28.9486C17.7484 28.4714 17.6711 28.0645 17.4705 27.7426C18.0723 27.7818 18.4846 28.1171 18.6673 28.8201H18.7188C18.7793 27.7628 18.1171 27.1916 17.0727 27.3134C16.6323 26.9804 15.9879 26.7982 15.2046 26.7859C15.2528 26.1287 15.5554 25.5989 16.0877 25.0423C17.2475 25.0803 18.2594 26.1019 19.2534 27.1581L19.2769 27.1324C18.1104 25.4369 17.3551 23.757 16.3779 23.1747L15.7425 23.1713C14.9267 22.3029 14.595 20.6062 13.1416 20.5235C12.9926 20.5325 12.8805 20.6755 12.8805 20.8253C14.706 20.756 14.8864 22.9824 15.9274 23.8889C15.5117 23.8643 15.1441 23.9459 14.7721 24.2622C15.161 24.3415 15.5285 24.4868 15.7414 24.7193C15.0164 25.9353 13.758 26.8977 12.773 27.1201L12.7449 27.0586C13.1943 26.2215 13.5843 25.4782 13.7669 24.6008C12.9915 25.7956 12.0535 26.8474 11.1873 27.5638C11.1503 27.0184 11.0136 26.4227 10.6685 25.9622C10.5094 25.885 10.3189 25.8426 10.1216 25.8426C9.09741 25.8426 8.8083 26.4484 8.63124 27.2229H8.58194C8.57858 27.1603 8.57634 27.0989 8.57634 27.0374C8.57634 24.1593 12.4312 18.6637 15.4288 18.6637C17.0525 18.6637 17.5153 19.7255 17.5938 21.6691C17.6576 23.2719 17.9512 23.966 18.2325 24.2801C17.9232 23.2607 17.7955 22.4381 17.8313 21.2411C17.8616 20.2653 17.6599 19.36 17.1029 18.7911C17.3741 18.5631 17.9322 18.1272 18.5485 17.8243C20.7673 16.7323 23.32 16.7715 25.6968 15.7208C26.2963 15.4559 26.7748 15.2715 27.2622 15.2168L27.167 15.969C27.6769 17.2185 29.7175 17.6801 31.1911 17.6455C31.5642 18.0736 31.9407 19.0146 31.915 19.2952C31.5844 21.3551 32.9582 23.1344 33.7886 24.3415C33.8547 24.9194 33.0199 25.8448 31.7289 26.6663ZM8.39144 28.3641C8.12138 29.4616 7.54987 30.5 5.28291 30.5C4.23067 30.5 3.09551 30.2116 2.4803 29.9322C4.15783 29.3029 6.77554 28.5977 8.39144 28.3641ZM4.7058 32.0055C2.11163 32.0055 0.435218 31.2823 0.435218 30.2049C0.435218 28.2825 5.03862 27.2386 8.19533 26.6261C8.18973 26.692 8.18749 26.7546 8.18749 26.8194C8.18749 27.1916 8.23343 27.566 8.30851 27.9394C7.50504 28.0746 4.10292 28.6837 2.14861 29.6259C1.81579 29.788 1.9581 30.2429 1.94914 30.2407C1.94914 30.2407 3.43617 30.9124 5.25601 30.9124C10.2348 30.9124 7.94432 26.2416 10.1216 26.2416C10.5945 26.2416 10.8041 27.1234 10.8041 27.6812C10.8041 30.614 7.74486 32.0055 4.7058 32.0055ZM27.604 12.3454L27.7475 12.3656L27.3272 14.6222C27.1054 14.7116 26.7759 14.7887 26.5641 14.7831C26.5294 13.8252 26.981 12.8618 27.604 12.3454ZM34.1864 10.9003V10.9304C32.8876 10.7706 31.6729 9.58363 30.3461 10.2498C29.9337 10.2587 29.1404 10.0139 28.7807 9.85412C28.8658 9.41598 29.1336 8.92085 29.713 9.00803C31.6527 9.29751 32.7487 10.3235 34.1864 10.9003ZM28.3806 6.08193C28.9028 5.48062 29.3723 5.10955 30.2128 4.71389C29.9853 5.95899 31.414 6.45971 31.5194 7.61316C32.4551 7.944 32.668 9.10639 33.653 8.53525C35.14 11.5932 38.4211 9.71441 40.427 11.5295L40.4203 11.3194C38.6733 9.71441 35.4146 10.4074 33.904 8.41342C34.4217 8.15188 35.0425 8.20106 35.8169 8.46483C34.8823 7.00625 32.612 8.7599 31.9452 7.09679C32.9123 6.91014 33.5846 7.02526 34.4778 7.29239L34.6279 7.10462C33.5869 6.19482 32.2063 6.98503 31.1664 6.07747C30.2722 5.20791 30.4985 3.73592 30.986 2.75794C31.4723 1.89062 32.5907 2.04374 33.2955 2.30975C33.6889 3.45202 34.1942 4.28246 35.1905 5.03019C34.61 4.20422 34.2828 3.60403 34.0407 2.46288L35.0851 1.85933C35.6073 1.89956 36.0522 2.08845 36.6136 2.01245C36.1654 2.73 36.905 4.23999 35.6376 4.27688C35.642 4.43335 35.7295 4.56971 35.8987 4.65353C36.757 4.27911 36.0813 5.56109 36.6058 5.82486C36.8232 7.90152 39.5428 7.45445 39.7266 9.45398C39.2044 9.30198 38.6833 8.69843 38.1992 8.99685C39.3523 9.60487 40.5043 10.5873 41.2473 11.7218C41.5655 12.237 42.0093 12.978 42.3443 13.7179C42.2289 12.9568 41.7414 11.9699 41.4322 11.5329C40.6511 10.7024 39.6134 9.45399 40.1737 8.28601L40.102 7.83335C41.0713 7.57069 40.4696 6.5223 40.8876 5.49627C41.0478 5.10955 41.4523 4.71277 41.6339 5.05255C42.7444 6.92802 43.0368 7.51592 43.791 9.26063C42.4104 10.5761 44.5328 11.6357 44.5373 13.0037C44.5497 15.7924 45.9975 17.28 45.6994 20.0709C45.7722 20.8231 46.1028 20.9795 45.8843 21.7787C45.5044 21.2735 45.5145 20.3715 45.0674 19.8786C43.2453 18.3016 43.4134 15.3285 41.4523 13.2753C40.8237 12.6148 40.0583 12.3946 39.3972 11.9811L39.6459 11.7195C38.9489 11.4189 38.5556 11.3898 37.7488 10.9986C38.3046 11.9799 39.4229 12.2828 40.2791 12.8909C43.0761 14.8155 42.3376 17.4924 44.4611 19.8004C44.9553 20.3391 45.0573 20.6185 44.9945 20.946H44.9598C43.3248 19.407 41.0478 18.1585 40.7912 15.7957C39.6101 11.2669 35.1759 11.6804 31.6258 9.0248C30.2632 8.00882 29.555 7.59528 28.4792 8.07029C28.2147 7.41309 28.4534 6.8006 28.3806 6.08193ZM31.8163 1.77103C33.3123 1.66038 34.4587 1.50614 35.9076 1.03113V1.22225C35.1983 1.29378 34.6783 1.74644 34.1169 2.1231L31.8163 1.80009V1.77103ZM33.7191 1.18201C34.8038 0.41304 36.5609 -0.049675 37.881 0.658937C37.8787 1.13954 37.3924 1.09148 37.1324 1.3329H37.0854L37.1739 1.03448C36.7638 1.10824 36.2057 0.95624 35.8326 0.768469L33.7191 1.20548V1.18201ZM40.4068 1.45361V1.47708C39.5047 1.09595 38.8391 1.55866 37.7891 1.41672V1.39437C38.5231 0.639933 39.6717 0.705877 40.4068 1.45361ZM39.8521 2.77694C39.6964 2.43829 39.5014 2.08846 39.1585 1.89957L38.513 2.01915C38.4749 1.72073 38.5915 1.58437 39.0352 1.56761C39.823 1.5352 40.3306 1.69279 40.4505 2.13651C40.4113 2.3254 40.0393 2.70094 39.8521 2.77694ZM38.1309 6.206L37.9426 6.84643C37.6625 6.84643 37.333 6.8006 37.3106 6.46977C37.2927 6.1747 37.4955 5.96905 37.7577 5.82711L38.2037 6.01934C38.1712 4.65912 39.925 5.51639 40.2578 6.04505C40.3665 6.45636 40.3463 6.8062 40.2914 7.19291C39.7289 7.20521 38.9994 7.10461 38.4122 6.89561C38.095 6.73689 38.6508 6.28312 38.1309 6.206ZM41.0792 3.57273L41.0041 4.56077H40.9671C40.3295 4.01869 39.098 3.5325 38.4245 4.21876C37.7264 4.26458 37.1649 4.62112 36.9789 5.29732H36.8657C36.608 4.88154 36.9789 4.46688 37.3151 4.27911C36.385 4.1517 36.5475 1.44913 38.0681 1.75203C37.9404 2.04151 38.2149 2.28964 38.401 2.39693C39.6672 1.64362 39.3288 4.35958 40.371 2.85183C40.4853 2.80489 40.65 2.76577 40.7822 2.76241C40.9514 2.96583 41.096 3.30113 41.0792 3.57273ZM54.9499 27.7069C54.8793 27.3447 54.6047 26.8485 53.9324 26.6104C51.4077 26.654 49.831 24.5774 48.0874 22.8315C46.4558 21.1986 46.1812 20.8633 45.9627 16.8631C45.3296 15.7298 45.1895 14.4076 45.0069 13.0865C44.8253 11.8425 43.3024 10.7136 44.3334 9.28745C43.5523 7.79087 42.7309 5.90534 42.3466 4.61554C40.6724 3.51797 41.4949 0.554991 39.1137 0.398514L38.4021 0.585167C36.6181 -0.587284 34.3433 0.311333 32.7789 1.2893C32.0315 1.77773 30.2385 0.936115 30.2251 2.3634C31.1249 4.22211 28.5789 4.66694 27.8304 6.07411C27.9178 6.40829 27.9391 6.75366 27.9391 7.02078C27.9391 7.92164 27.4259 9.33887 27.4259 10.0978C27.4259 10.5191 27.4987 10.8477 27.641 11.1037C27.641 12.0425 26.191 13.3905 26.191 13.3905C26.2772 14.3517 26.4476 15.0256 25.4514 15.4369C23.0511 16.4283 20.5252 16.4473 18.3042 17.5382C17.6509 17.8601 17.0626 18.334 16.8093 18.5497C16.4754 18.3228 16.0473 18.1898 15.5083 18.1898C12.3897 18.1898 8.71865 23.2093 8.24016 26.2081C4.3685 26.9569 0.000427246 27.9349 0.000427246 30.2317C0.000427246 31.6981 1.86846 32.4391 4.68003 32.4391C7.31679 32.4391 9.74624 31.5495 10.9027 29.4896C11.0842 29.1699 11.3027 28.8905 11.5437 28.658C12.5455 27.6968 13.9944 27.4733 15.2573 27.4409C16.7813 27.3995 17.3831 28.0321 17.6408 28.9486C15.5151 28.8972 13.5316 28.8313 12.2015 28.743C12.2026 29.4069 12.6777 29.6461 14.0482 29.6651C14.6959 29.6706 21.8811 29.6047 26.4072 29.5958C26.4072 29.5958 27.2981 29.598 27.9918 29.5958C28.682 29.598 29.574 29.5958 29.574 29.5958C34.1012 29.6047 41.2854 29.6706 41.9353 29.6651C43.3047 29.6461 43.7832 29.4069 43.7832 28.743C39.823 29.0023 30.0828 29.0839 27.9918 29.0973C27.5693 29.095 26.8331 29.0917 25.8985 29.0805C28.0926 28.7217 30.9815 27.7315 33.3426 26.4908C35.3395 25.4369 37.0249 24.3102 38.383 24.2823C39.6034 24.2823 40.8562 25.6582 43.8224 27.0296C45.9078 27.9919 47.4217 30.0059 49.0937 30.0059C49.8422 30.0059 50.4451 29.7209 50.7006 29.2672C50.76 29.4516 50.8821 29.7064 51.1309 29.8696C51.8671 29.8696 52.321 29.5432 52.8813 29.5432C53.1043 29.5432 53.3049 29.5488 53.5267 29.6282C53.5267 29.6282 53.7766 29.3488 54.0825 29.0112C54.3313 29 54.5554 28.9944 54.7661 28.9922C54.923 28.6111 55.0082 28.0131 54.9499 27.7069Z" fill="#A98785"/>
<path d="M0 48H54.9136V47.5853H0V48Z" fill="#D43216"/>
<path d="M3.92254 44.1805C4.60386 44.1805 4.99831 43.9123 4.99831 43.4306V43.4071C4.99831 42.9622 4.65204 42.6716 3.90236 42.6716H2.19122V44.1805H3.92254ZM3.60093 41.0789C4.28113 41.0789 4.66213 40.8476 4.66213 40.3659V40.3413C4.66213 39.8987 4.31587 39.6405 3.64575 39.6405H2.19122V41.0789H3.60093ZM0.00830078 37.8187H4.1545C5.16976 37.8187 5.8847 38.0735 6.35983 38.553C6.68368 38.8816 6.87866 39.3152 6.87866 39.8763V39.8987C6.87866 40.8476 6.34862 41.4087 5.63256 41.7227C6.6142 42.0491 7.23726 42.6135 7.23726 43.7223V43.7469C7.23726 45.1518 6.1077 46.0046 4.17915 46.0046H0.00830078V37.8187Z" fill="#D43216"/>
<path d="M8.24402 37.8186H14.7446V39.7477H10.4594V40.9861H14.3412V42.7755H10.4594V44.0742H14.8017V46.0034H8.24402V37.8186Z" fill="#D43216"/>
<path d="M15.9218 37.8186H18.1629V44.015H22.0772V46.0034H15.9218V37.8186Z" fill="#D43216"/>
<path d="M23.0118 37.8186H29.481V39.8036H25.253V41.1951H29.0765V43.0806H25.253V46.0034H23.0118V37.8186Z" fill="#D43216"/>
<path d="M36.6177 41.9327V41.9104C36.6177 40.7256 35.7739 39.6974 34.539 39.6974C33.3154 39.6974 32.494 40.7055 32.494 41.8858V41.9104C32.494 43.0918 33.3366 44.1212 34.5615 44.1212C35.7975 44.1212 36.6177 43.1175 36.6177 41.9327ZM30.1956 41.9327V41.9104C30.1956 39.5588 32.067 37.652 34.5615 37.652C37.0559 37.652 38.9038 39.5353 38.9038 41.8858V41.9104C38.9038 44.2609 37.0335 46.1688 34.539 46.1688C32.0446 46.1688 30.1956 44.2855 30.1956 41.9327Z" fill="#D43216"/>
<path d="M43.7672 41.747C44.5281 41.747 44.9673 41.3737 44.9673 40.778V40.7534C44.9673 40.1085 44.5057 39.7821 43.7537 39.7821H42.2869V41.747H43.7672ZM40.0468 37.8183H43.8703C45.1041 37.8183 45.9624 38.1436 46.5048 38.7047C46.9777 39.1719 47.2209 39.8033 47.2209 40.6125V40.6349C47.2209 41.8856 46.5631 42.7171 45.5568 43.1497L47.4842 46.0054H44.899L43.2708 43.5252H43.2461H42.2869V46.0054H40.0468V37.8183Z" fill="#D43216"/>
<path d="M50.3027 39.8039H47.8755V37.8189H54.97V39.8039H52.5439V46.0026H50.3027V39.8039Z" fill="#D43216"/>
<path d="M25.6791 36.6308H24.8129L23.0098 32.0807H24.0912L25.2589 35.2628L26.4254 32.0807H27.4832L25.6791 36.6308Z" fill="#D43216"/>
<path d="M28.4082 36.5974H29.3876V32.0808H28.4082V36.5974Z" fill="#D43216"/>
<path d="M30.6935 36.5976V32.081H31.6752V35.6945H33.9007V36.5976H30.6935Z" fill="#D43216"/>
<path d="M34.8293 36.5976V32.081H35.8109V35.6945H38.0331V36.5976H34.8293Z" fill="#D43216"/>
<path d="M38.9655 36.5976V32.081H42.3295V32.9651H39.9393V33.8794H42.0438V34.7646H39.9393V35.7124H42.3643V36.5976H38.9655Z" fill="#D43216"/>
<path d="M49.5152 34.3375C49.5152 33.5384 48.9717 32.9751 48.1694 32.9751H47.4085V35.7011H48.1694C48.9717 35.7011 49.5152 35.1534 49.5152 34.3498V34.3375ZM48.1694 36.5975H46.4302V32.0809H48.1694C49.5701 32.0809 50.5395 33.0555 50.5395 34.3252V34.3375C50.5395 35.6106 49.5701 36.5975 48.1694 36.5975Z" fill="#D43216"/>
<path d="M51.6024 36.5976V32.081H54.9675V32.9651H52.5784V33.8794H54.6806V34.7646H52.5784V35.7124H55V36.5976H51.6024Z" fill="#D43216"/>
</g>
<defs>
<clipPath id="clip0_8_110">
<rect width="55" height="48" fill="white"/>
</clipPath>
</defs>
</svg>
