<svg preserveAspectRatio="none" width="100%" height="100%" overflow="visible" style="display: block;" viewBox="0 0 1440 500" fill="none" xmlns="http://www.w3.org/2000/svg">
<g id="Group 1 1" clip-path="url(#clip0_502_1723)">
<path id="Vector" d="M704.586 5.2307C700.308 3.38817 694.916 1.47507 690.403 0C688.482 1.33726 682.961 6.3713 681.011 6.68374C644.724 12.4957 628.18 33.7451 591.976 12.3794C582.651 13.273 580.178 15.5595 574.134 21.6026C568.051 23.0085 562.218 23.679 555.951 23.3768C545.624 22.8789 536.703 19.2294 526.531 22.4987C519.332 24.8128 518.231 26.3422 512.286 29.6629C504.743 27.1481 503.25 28.379 495.241 28.7034C489.417 28.9394 483.451 28.5192 477.578 29.1081C474.106 29.4562 470.595 30.3924 467.115 30.6797C459.983 30.2916 453.166 31.0698 446.233 31.0594C436.571 31.0448 426.572 30.0866 417.052 32.0981C413.432 28.6214 403.972 22.5352 399.144 20.1499C396.886 19.0351 391.721 18.1519 389.044 17.6189C385.586 16.9302 381.215 16.5194 377.841 15.7315C376.101 15.325 370.838 11.1314 369.105 10.6779C357.758 7.70885 349.163 14.3117 340.674 19.6346C336.098 22.5046 328.926 25.555 324.048 27.9963C320.547 29.7489 308.729 29.1185 304.751 28.5579C302.071 28.1803 296.383 24.6885 291.574 24.771C283.165 24.9153 279.562 28.7072 270.843 27.0314C264.061 25.7279 262.839 22.3746 257.249 20.1935C255.835 20.1988 253.044 22.5883 251.132 23.6094C243.103 27.8967 234.538 31.3606 226.416 35.3243C219.958 38.4761 212.703 43.65 205.661 46.4053C201.607 47.7683 191.263 53.832 187.518 54.0804C174.469 54.9455 161.12 55.6962 148.31 53.182C143.911 54.3916 135.523 53.7676 131.603 54.7846C120.283 57.7214 108.925 58.33 97.1669 57.4148C91.7962 56.9968 88.919 57.7965 83.5657 56.2037L78.9794 57.8154C74.7402 56.8879 71.297 56.5031 66.9848 55.9961C57.8824 59.6393 42.8967 70.823 32.6517 70.0697C24.5214 69.4718 5.27872 75.8223 0 73.9397V157.973C5.57617 157.965 1435.19 158.132 1440 158.205L1439.99 47.0354H1440C1434.8 46.6899 1435.2 45.5163 1431.16 44.4469C1416.79 40.6417 1401.21 35.0061 1385.98 37.6982C1374.85 40.1571 1363.28 37.9583 1352.02 39.0846C1339.29 40.3572 1325.36 46.2583 1312.63 44.6181C1311.22 44.4367 1297.53 39.4197 1296.56 38.6668C1290.14 40.906 1284.62 44.2372 1277.43 43.7359C1273.03 43.4297 1262.96 41.0048 1260 37.8895L1259.95 37.8318C1256.18 36.6294 1244.28 40.4821 1239.82 40.9103C1237.53 41.1297 1234.28 40.915 1231.94 40.796C1224.04 31.8481 1213.76 33.6279 1203.18 37.0539C1196.06 39.361 1188.72 41.2667 1182.07 44.7299C1173.55 43.1052 1171.27 44.2151 1163.15 43.6541C1160.14 45.812 1157.89 48.3058 1155.38 50.9232C1146.73 52.0858 1142.69 56.3759 1133.83 52.905C1132.78 52.4947 1127.19 53.3542 1125.13 52.7226C1120.02 51.1517 1116.46 48.2074 1111.85 45.7851C1102.51 41.8629 1091.7 36.7947 1081.54 35.3575C1077.26 34.7539 1071.11 39.732 1068.06 39.581C1055.81 38.9742 1055.61 35.7273 1042.18 38.6848C1031.71 40.9875 1018.53 53.1636 1010.11 53.7267C997.232 54.5868 976.933 42.7615 962.811 43.2943C955.843 43.5574 949.681 47.7139 940.551 48.9574C931.7 45.6254 921.728 44.3215 913.422 39.9901C908.86 37.61 904.248 35.1772 899.702 32.773C891.725 33.2044 885.575 34.5511 877.988 35.0941C874.066 35.375 865.844 31.0196 861.85 30.1353C858.145 29.3152 851.227 29.5465 847.856 28.4316C845.233 27.5638 839.601 24.979 837.189 23.6791C835.852 21.3172 830.738 10.0205 827.089 10.4039C814.065 11.7717 800.763 14.5171 787.744 16.4326C784.162 16.9596 781.371 15.9817 777.895 16.1855C770.169 17.2493 758.292 20.5114 750.917 20.4739C745.875 20.4483 736.288 14.0579 732.885 10.3573C728.495 9.67578 724.295 7.55335 719.37 6.60617C716.429 5.1101 706.731 6.1532 704.586 5.2307Z" fill="var(--fill-0, white)"/>
<path id="Vector_2" d="M1440 157.798H0V341.284H1440V157.798Z" fill="var(--fill-0, white)"/>
<path id="Vector_3" d="M704.586 494.258C700.308 496.101 694.916 498.014 690.403 499.489C688.482 498.151 682.961 493.117 681.011 492.806C644.724 486.994 628.18 465.744 591.976 487.109C582.651 486.216 580.178 483.929 574.134 477.886C568.051 476.481 562.218 475.81 555.951 476.112C545.624 476.61 536.703 480.26 526.531 476.99C519.332 474.676 518.231 473.147 512.286 469.826C504.743 472.34 503.25 471.11 495.241 470.785C489.417 470.55 483.451 470.97 477.578 470.381C474.106 470.033 470.595 469.096 467.115 468.809C459.983 469.197 453.166 468.419 446.233 468.429C436.571 468.444 426.572 469.402 417.052 467.391C413.432 470.868 403.972 476.953 399.144 479.339C396.886 480.454 391.721 481.337 389.044 481.87C385.586 482.559 381.215 482.97 377.841 483.758C376.101 484.164 370.838 488.358 369.105 488.811C357.758 491.78 349.163 485.177 340.674 479.854C336.098 476.984 328.926 473.934 324.048 471.493C320.547 469.74 308.729 470.371 304.751 470.931C302.071 471.308 296.383 474.8 291.574 474.717C283.165 474.573 279.562 470.782 270.843 472.458C264.061 473.761 262.839 477.115 257.249 479.295C255.835 479.29 253.044 476.901 251.132 475.88C243.103 471.593 234.538 468.128 226.416 464.164C219.958 461.013 212.703 455.839 205.661 453.083C201.607 451.72 191.263 445.657 187.518 445.408C174.469 444.543 161.12 443.793 148.31 446.307C143.911 445.097 135.523 445.721 131.603 444.705C120.283 441.768 108.925 441.159 97.1669 442.074C91.7962 442.492 88.919 441.693 83.5657 443.285L78.9794 441.673C74.7402 442.601 71.297 442.985 66.9848 443.493C57.8824 439.85 42.8967 428.666 32.6517 429.419C24.5214 430.017 5.27872 423.667 0 425.55V341.515C5.57617 341.524 1435.19 341.357 1440 341.284L1439.99 452.453H1440C1434.8 452.799 1435.2 453.972 1431.16 455.042C1416.79 458.848 1401.21 464.483 1385.98 461.791C1374.85 459.332 1363.28 461.53 1352.02 460.405C1339.29 459.132 1325.36 453.23 1312.63 454.871C1311.22 455.052 1297.53 460.069 1296.56 460.822C1290.14 458.583 1284.62 455.251 1277.43 455.753C1273.03 456.059 1262.96 458.484 1260 461.599L1259.95 461.657C1256.18 462.86 1244.28 459.006 1239.82 458.579C1237.53 458.359 1234.28 458.574 1231.94 458.693C1224.04 467.64 1213.76 465.861 1203.18 462.435C1196.06 460.127 1188.72 458.222 1182.07 454.759C1173.55 456.383 1171.27 455.273 1163.15 455.835C1160.14 453.677 1157.89 451.183 1155.38 448.566C1146.73 447.403 1142.69 443.113 1133.83 446.583C1132.78 446.994 1127.19 446.135 1125.13 446.766C1120.02 448.338 1116.46 451.282 1111.85 453.704C1102.51 457.626 1091.7 462.694 1081.54 464.131C1077.26 464.735 1071.11 459.757 1068.06 459.908C1055.81 460.515 1055.61 463.761 1042.18 460.804C1031.71 458.502 1018.53 446.326 1010.11 445.762C997.232 444.902 976.933 456.728 962.811 456.194C955.843 455.931 949.681 451.775 940.551 450.531C931.7 453.863 921.728 455.167 913.422 459.499C908.86 461.879 904.248 464.312 899.702 466.716C891.725 466.284 885.575 464.938 877.988 464.394C874.066 464.114 865.844 468.469 861.85 469.353C858.145 470.173 851.227 469.942 847.856 471.057C845.233 471.925 839.601 474.51 837.189 475.81C835.852 478.172 830.738 489.469 827.089 489.085C814.065 487.717 800.763 484.972 787.744 483.056C784.162 482.529 781.371 483.507 777.895 483.304C770.169 482.239 758.292 478.977 750.917 479.015C745.875 479.04 736.288 485.431 732.885 489.131C728.495 489.813 724.295 491.936 719.37 492.883C716.429 494.379 706.731 493.336 704.586 494.258Z" fill="var(--fill-0, white)"/>
</g>
<defs>
<clipPath id="clip0_502_1723">
<rect width="1440" height="500" fill="white"/>
</clipPath>
</defs>
</svg>
